<svg xmlns="http://www.w3.org/2000/svg" width="280" height="240" viewBox="0 0 280 240">
  <g transform="translate(0, 0)">
  <rect width="280" height="240" fill="#191B29"/>

  <rect width="280" height="26" fill="#2f334d"/>
  <rect x="12" y="9" width="20" height="8" rx="4" fill="#82aaff"/>
  <circle cx="40" cy="13" r="3" fill="#828bb8"/>
  <circle cx="50" cy="13" r="3" fill="#828bb8"/>
  <text x="140" y="17" font-family="system-ui, -apple-system, Segoe UI, sans-serif" font-size="10" font-weight="600" text-anchor="middle" fill="#82aaff">9:41</text>
  <circle cx="238" cy="13" r="4" fill="#86e1fc"/>
  <circle cx="252" cy="13" r="4" fill="#ff966c"/>
  <circle cx="266" cy="13" r="4" fill="#ff757f"/>

  <rect x="14" y="38" width="252" height="190" rx="12" fill="#2f334d" stroke="#444a73" stroke-opacity="0.5"/>
  <text x="28" y="61" font-family="system-ui, -apple-system, Segoe UI, sans-serif" font-size="12.5" font-weight="600" fill="#c8d3f5">TokyoNight Night and Moon (light)</text>
  <text x="28" y="77" font-family="system-ui, -apple-system, Segoe UI, sans-serif" font-size="9.5" fill="#828bb8">Secondary text</text>

  <rect x="26" y="87" width="228" height="50" rx="8" fill="#444a73"/>
  <text x="38" y="105" font-family="system-ui, -apple-system, Segoe UI, sans-serif" font-size="10" font-weight="500" fill="#c8d3f5">Nested card</text>
  <text x="38" y="120" font-family="system-ui, -apple-system, Segoe UI, sans-serif" font-size="9" fill="#828bb8">Body text on an elevated surface</text>

  <rect x="26" y="145" width="228" height="22" rx="6" fill="#222436" stroke="#444a73" stroke-opacity="0.4"/>
  <text x="38" y="160" font-family="system-ui, -apple-system, Segoe UI, sans-serif" font-size="9" fill="#828bb8">Search</text>

  <rect x="26" y="175" width="78" height="22" rx="11" fill="#82aaff"/>
  <text x="65" y="190" font-family="system-ui, -apple-system, Segoe UI, sans-serif" font-size="9.5" font-weight="600" text-anchor="middle" fill="#1e2030">Button</text>
  <rect x="112" y="175" width="70" height="22" rx="11" fill="#82aaff" fill-opacity="0.15"/>
  <text x="147" y="190" font-family="system-ui, -apple-system, Segoe UI, sans-serif" font-size="9.5" font-weight="500" text-anchor="middle" fill="#82aaff">Accent</text>
  <rect x="190" y="175" width="64" height="22" rx="11" fill="#444a73"/>
  <text x="222" y="190" font-family="system-ui, -apple-system, Segoe UI, sans-serif" font-size="9.5" text-anchor="middle" fill="#c8d3f5">Chip</text>

  <circle cx="34" cy="212" r="7" fill="#82aaff"/>
  <circle cx="54" cy="212" r="7" fill="#c099ff"/>
  <circle cx="74" cy="212" r="7" fill="#ff757f"/>
  <circle cx="94" cy="212" r="7" fill="#ff966c"/>
  <circle cx="114" cy="212" r="7" fill="#86e1fc"/>
</g>
</svg>