<svg xmlns="http://www.w3.org/2000/svg" width="280" height="240" viewBox="0 0 280 240">
  <g transform="translate(0, 0)">
  <rect width="280" height="240" fill="#cbccd1"/>

  <rect width="280" height="26" fill="#dfe0e5"/>
  <rect x="12" y="9" width="20" height="8" rx="4" fill="#2e7de9"/>
  <circle cx="40" cy="13" r="3" fill="#1a1b26"/>
  <circle cx="50" cy="13" r="3" fill="#1a1b26"/>
  <text x="140" y="17" font-family="system-ui, -apple-system, Segoe UI, sans-serif" font-size="10" font-weight="600" text-anchor="middle" fill="#2e7de9">9:41</text>
  <circle cx="238" cy="13" r="4" fill="#007197"/>
  <circle cx="252" cy="13" r="4" fill="#b15c00"/>
  <circle cx="266" cy="13" r="4" fill="#f52a65"/>

  <rect x="14" y="38" width="252" height="190" rx="12" fill="#dfe0e5" stroke="#4c505e" stroke-opacity="0.5"/>
  <text x="28" y="61" font-family="system-ui, -apple-system, Segoe UI, sans-serif" font-size="12.5" font-weight="600" fill="#387068">Tokyo Night (light)</text>
  <text x="28" y="77" font-family="system-ui, -apple-system, Segoe UI, sans-serif" font-size="9.5" fill="#1a1b26">Secondary text</text>

  <rect x="26" y="87" width="228" height="50" rx="8" fill="#9699a3"/>
  <text x="38" y="105" font-family="system-ui, -apple-system, Segoe UI, sans-serif" font-size="10" font-weight="500" fill="#387068">Nested card</text>
  <text x="38" y="120" font-family="system-ui, -apple-system, Segoe UI, sans-serif" font-size="9" fill="#1a1b26">Body text on an elevated surface</text>

  <rect x="26" y="145" width="228" height="22" rx="6" fill="#e1e2e7" stroke="#4c505e" stroke-opacity="0.4"/>
  <text x="38" y="160" font-family="system-ui, -apple-system, Segoe UI, sans-serif" font-size="9" fill="#1a1b26">Search</text>

  <rect x="26" y="175" width="78" height="22" rx="11" fill="#2e7de9"/>
  <text x="65" y="190" font-family="system-ui, -apple-system, Segoe UI, sans-serif" font-size="9.5" font-weight="600" text-anchor="middle" fill="#d0d5e3">Button</text>
  <rect x="112" y="175" width="70" height="22" rx="11" fill="#2e7de9" fill-opacity="0.15"/>
  <text x="147" y="190" font-family="system-ui, -apple-system, Segoe UI, sans-serif" font-size="9.5" font-weight="500" text-anchor="middle" fill="#2e7de9">Accent</text>
  <rect x="190" y="175" width="64" height="22" rx="11" fill="#9699a3"/>
  <text x="222" y="190" font-family="system-ui, -apple-system, Segoe UI, sans-serif" font-size="9.5" text-anchor="middle" fill="#387068">Chip</text>

  <circle cx="34" cy="212" r="7" fill="#2e7de9"/>
  <circle cx="54" cy="212" r="7" fill="#9854f1"/>
  <circle cx="74" cy="212" r="7" fill="#f52a65"/>
  <circle cx="94" cy="212" r="7" fill="#b15c00"/>
  <circle cx="114" cy="212" r="7" fill="#007197"/>
</g>
</svg>