<svg xmlns="http://www.w3.org/2000/svg" width="564" height="240" viewBox="0 0 564 240">
  <g transform="translate(0, 0)">
  <rect width="280" height="240" fill="#121212"/>

  <rect width="280" height="26" fill="#161616"/>
  <rect x="12" y="9" width="20" height="8" rx="4" fill="#08bdba"/>
  <circle cx="40" cy="13" r="3" fill="#f2f4f8"/>
  <circle cx="50" cy="13" r="3" fill="#f2f4f8"/>
  <text x="140" y="17" font-family="system-ui, -apple-system, Segoe UI, sans-serif" font-size="10" font-weight="600" text-anchor="middle" fill="#08bdba">9:41</text>
  <circle cx="238" cy="13" r="4" fill="#be85ff"/>
  <circle cx="252" cy="13" r="4" fill="#f0d92b"/>
  <circle cx="266" cy="13" r="4" fill="#ee5396"/>

  <rect x="14" y="38" width="252" height="190" rx="12" fill="#161616" stroke="#525252" stroke-opacity="0.5"/>
  <text x="28" y="61" font-family="system-ui, -apple-system, Segoe UI, sans-serif" font-size="12.5" font-weight="600" fill="#dde1e6">Oxocarbon Blue (dark)</text>
  <text x="28" y="77" font-family="system-ui, -apple-system, Segoe UI, sans-serif" font-size="9.5" fill="#f2f4f8">Secondary text</text>

  <rect x="26" y="87" width="228" height="50" rx="8" fill="#262626"/>
  <text x="38" y="105" font-family="system-ui, -apple-system, Segoe UI, sans-serif" font-size="10" font-weight="500" fill="#dde1e6">Nested card</text>
  <text x="38" y="120" font-family="system-ui, -apple-system, Segoe UI, sans-serif" font-size="9" fill="#f2f4f8">Body text on an elevated surface</text>

  <rect x="26" y="145" width="228" height="22" rx="6" fill="#161616" stroke="#525252" stroke-opacity="0.4"/>
  <text x="38" y="160" font-family="system-ui, -apple-system, Segoe UI, sans-serif" font-size="9" fill="#f2f4f8">Search</text>

  <rect x="26" y="175" width="78" height="22" rx="11" fill="#08bdba"/>
  <text x="65" y="190" font-family="system-ui, -apple-system, Segoe UI, sans-serif" font-size="9.5" font-weight="600" text-anchor="middle" fill="#161616">Button</text>
  <rect x="112" y="175" width="70" height="22" rx="11" fill="#08bdba" fill-opacity="0.15"/>
  <text x="147" y="190" font-family="system-ui, -apple-system, Segoe UI, sans-serif" font-size="9.5" font-weight="500" text-anchor="middle" fill="#08bdba">Accent</text>
  <rect x="190" y="175" width="64" height="22" rx="11" fill="#262626"/>
  <text x="222" y="190" font-family="system-ui, -apple-system, Segoe UI, sans-serif" font-size="9.5" text-anchor="middle" fill="#dde1e6">Chip</text>

  <circle cx="34" cy="212" r="7" fill="#08bdba"/>
  <circle cx="54" cy="212" r="7" fill="#ff7eb6"/>
  <circle cx="74" cy="212" r="7" fill="#ee5396"/>
  <circle cx="94" cy="212" r="7" fill="#f0d92b"/>
  <circle cx="114" cy="212" r="7" fill="#be85ff"/>
</g>
  <rect x="280" y="0" width="4" height="240" fill="#888"/>
  <g transform="translate(284, 0)">
  <rect width="280" height="240" fill="#ffffff"/>

  <rect width="280" height="26" fill="#f6f6f6"/>
  <rect x="12" y="9" width="20" height="8" rx="4" fill="#08bdba"/>
  <circle cx="40" cy="13" r="3" fill="#525252"/>
  <circle cx="50" cy="13" r="3" fill="#525252"/>
  <text x="140" y="17" font-family="system-ui, -apple-system, Segoe UI, sans-serif" font-size="10" font-weight="600" text-anchor="middle" fill="#08bdba">9:41</text>
  <circle cx="238" cy="13" r="4" fill="#be85ff"/>
  <circle cx="252" cy="13" r="4" fill="#f0d92b"/>
  <circle cx="266" cy="13" r="4" fill="#ee5296"/>

  <rect x="14" y="38" width="252" height="190" rx="12" fill="#f6f6f6" stroke="#90a4ae" stroke-opacity="0.5"/>
  <text x="28" y="61" font-family="system-ui, -apple-system, Segoe UI, sans-serif" font-size="12.5" font-weight="600" fill="#37474f">Oxocarbon Blue (light)</text>
  <text x="28" y="77" font-family="system-ui, -apple-system, Segoe UI, sans-serif" font-size="9.5" fill="#525252">Secondary text</text>

  <rect x="26" y="87" width="228" height="50" rx="8" fill="#f2f2f2"/>
  <text x="38" y="105" font-family="system-ui, -apple-system, Segoe UI, sans-serif" font-size="10" font-weight="500" fill="#37474f">Nested card</text>
  <text x="38" y="120" font-family="system-ui, -apple-system, Segoe UI, sans-serif" font-size="9" fill="#525252">Body text on an elevated surface</text>

  <rect x="26" y="145" width="228" height="22" rx="6" fill="#f6f6f6" stroke="#90a4ae" stroke-opacity="0.4"/>
  <text x="38" y="160" font-family="system-ui, -apple-system, Segoe UI, sans-serif" font-size="9" fill="#525252">Search</text>

  <rect x="26" y="175" width="78" height="22" rx="11" fill="#08bdba"/>
  <text x="65" y="190" font-family="system-ui, -apple-system, Segoe UI, sans-serif" font-size="9.5" font-weight="600" text-anchor="middle" fill="#f6f6f6">Button</text>
  <rect x="112" y="175" width="70" height="22" rx="11" fill="#08bdba" fill-opacity="0.15"/>
  <text x="147" y="190" font-family="system-ui, -apple-system, Segoe UI, sans-serif" font-size="9.5" font-weight="500" text-anchor="middle" fill="#08bdba">Accent</text>
  <rect x="190" y="175" width="64" height="22" rx="11" fill="#f2f2f2"/>
  <text x="222" y="190" font-family="system-ui, -apple-system, Segoe UI, sans-serif" font-size="9.5" text-anchor="middle" fill="#37474f">Chip</text>

  <circle cx="34" cy="212" r="7" fill="#08bdba"/>
  <circle cx="54" cy="212" r="7" fill="#ff7eb6"/>
  <circle cx="74" cy="212" r="7" fill="#ee5296"/>
  <circle cx="94" cy="212" r="7" fill="#f0d92b"/>
  <circle cx="114" cy="212" r="7" fill="#be85ff"/>
</g>
</svg>