<svg xmlns="http://www.w3.org/2000/svg" width="280" height="240" viewBox="0 0 280 240">
  <g transform="translate(0, 0)">
  <rect width="280" height="240" fill="#f9f5d7"/>

  <rect width="280" height="26" fill="#fbf1c7"/>
  <rect x="12" y="9" width="20" height="8" rx="4" fill="#79740e"/>
  <circle cx="40" cy="13" r="3" fill="#504945"/>
  <circle cx="50" cy="13" r="3" fill="#504945"/>
  <text x="140" y="17" font-family="system-ui, -apple-system, Segoe UI, sans-serif" font-size="10" font-weight="600" text-anchor="middle" fill="#79740e">9:41</text>
  <circle cx="238" cy="13" r="4" fill="#076678"/>
  <circle cx="252" cy="13" r="4" fill="#b57614"/>
  <circle cx="266" cy="13" r="4" fill="#9d0006"/>

  <rect x="14" y="38" width="252" height="190" rx="12" fill="#fbf1c7" stroke="#a89984" stroke-opacity="0.5"/>
  <text x="28" y="61" font-family="system-ui, -apple-system, Segoe UI, sans-serif" font-size="12.5" font-weight="600" fill="#3c3836">Gruvbox Multi Cls. H Green</text>
  <text x="28" y="77" font-family="system-ui, -apple-system, Segoe UI, sans-serif" font-size="9.5" fill="#504945">Secondary text</text>

  <rect x="26" y="87" width="228" height="50" rx="8" fill="#ebdbb2"/>
  <text x="38" y="105" font-family="system-ui, -apple-system, Segoe UI, sans-serif" font-size="10" font-weight="500" fill="#3c3836">Nested card</text>
  <text x="38" y="120" font-family="system-ui, -apple-system, Segoe UI, sans-serif" font-size="9" fill="#504945">Body text on an elevated surface</text>

  <rect x="26" y="145" width="228" height="22" rx="6" fill="#f9f5d7" stroke="#a89984" stroke-opacity="0.4"/>
  <text x="38" y="160" font-family="system-ui, -apple-system, Segoe UI, sans-serif" font-size="9" fill="#504945">Search</text>

  <rect x="26" y="175" width="78" height="22" rx="11" fill="#79740e"/>
  <text x="65" y="190" font-family="system-ui, -apple-system, Segoe UI, sans-serif" font-size="9.5" font-weight="600" text-anchor="middle" fill="#f9f5d7">Button</text>
  <rect x="112" y="175" width="70" height="22" rx="11" fill="#79740e" fill-opacity="0.15"/>
  <text x="147" y="190" font-family="system-ui, -apple-system, Segoe UI, sans-serif" font-size="9.5" font-weight="500" text-anchor="middle" fill="#79740e">Accent</text>
  <rect x="190" y="175" width="64" height="22" rx="11" fill="#d5c4a1"/>
  <text x="222" y="190" font-family="system-ui, -apple-system, Segoe UI, sans-serif" font-size="9.5" text-anchor="middle" fill="#3c3836">Chip</text>

  <circle cx="34" cy="212" r="7" fill="#79740e"/>
  <circle cx="54" cy="212" r="7" fill="#af3a03"/>
  <circle cx="74" cy="212" r="7" fill="#9d0006"/>
  <circle cx="94" cy="212" r="7" fill="#b57614"/>
  <circle cx="114" cy="212" r="7" fill="#076678"/>
</g>
</svg>