<svg xmlns="http://www.w3.org/2000/svg" width="280" height="240" viewBox="0 0 280 240">
  <g transform="translate(0, 0)">
  <rect width="280" height="240" fill="#303446"/>

  <rect width="280" height="26" fill="#303446"/>
  <rect x="12" y="9" width="20" height="8" rx="4" fill="#81c8be"/>
  <circle cx="40" cy="13" r="3" fill="#a5adce"/>
  <circle cx="50" cy="13" r="3" fill="#a5adce"/>
  <text x="140" y="17" font-family="system-ui, -apple-system, Segoe UI, sans-serif" font-size="10" font-weight="600" text-anchor="middle" fill="#81c8be">9:41</text>
  <circle cx="238" cy="13" r="4" fill="#8caaee"/>
  <circle cx="252" cy="13" r="4" fill="#ef9f76"/>
  <circle cx="266" cy="13" r="4" fill="#e78284"/>

  <rect x="14" y="38" width="252" height="190" rx="12" fill="#303446" stroke="#737994" stroke-opacity="0.5"/>
  <text x="28" y="61" font-family="system-ui, -apple-system, Segoe UI, sans-serif" font-size="12.5" font-weight="600" fill="#c6d0f5">Catppuccin Frappé Teal</text>
  <text x="28" y="77" font-family="system-ui, -apple-system, Segoe UI, sans-serif" font-size="9.5" fill="#a5adce">Secondary text</text>

  <rect x="26" y="87" width="228" height="50" rx="8" fill="#414559"/>
  <text x="38" y="105" font-family="system-ui, -apple-system, Segoe UI, sans-serif" font-size="10" font-weight="500" fill="#c6d0f5">Nested card</text>
  <text x="38" y="120" font-family="system-ui, -apple-system, Segoe UI, sans-serif" font-size="9" fill="#a5adce">Body text on an elevated surface</text>

  <rect x="26" y="145" width="228" height="22" rx="6" fill="#292c3c" stroke="#737994" stroke-opacity="0.4"/>
  <text x="38" y="160" font-family="system-ui, -apple-system, Segoe UI, sans-serif" font-size="9" fill="#a5adce">Search</text>

  <rect x="26" y="175" width="78" height="22" rx="11" fill="#81c8be"/>
  <text x="65" y="190" font-family="system-ui, -apple-system, Segoe UI, sans-serif" font-size="9.5" font-weight="600" text-anchor="middle" fill="#303446">Button</text>
  <rect x="112" y="175" width="70" height="22" rx="11" fill="#81c8be" fill-opacity="0.15"/>
  <text x="147" y="190" font-family="system-ui, -apple-system, Segoe UI, sans-serif" font-size="9.5" font-weight="500" text-anchor="middle" fill="#81c8be">Accent</text>
  <rect x="190" y="175" width="64" height="22" rx="11" fill="#51576d"/>
  <text x="222" y="190" font-family="system-ui, -apple-system, Segoe UI, sans-serif" font-size="9.5" text-anchor="middle" fill="#c6d0f5">Chip</text>

  <circle cx="34" cy="212" r="7" fill="#81c8be"/>
  <circle cx="54" cy="212" r="7" fill="#99d1db"/>
  <circle cx="74" cy="212" r="7" fill="#e78284"/>
  <circle cx="94" cy="212" r="7" fill="#ef9f76"/>
  <circle cx="114" cy="212" r="7" fill="#8caaee"/>
</g>
</svg>