<svg xmlns="http://www.w3.org/2000/svg" width="280" height="240" viewBox="0 0 280 240">
  <g transform="translate(0, 0)">
  <rect width="280" height="240" fill="#000000"/>

  <rect width="280" height="26" fill="#000000"/>
  <rect x="12" y="9" width="20" height="8" rx="4" fill="#FFFFFF"/>
  <circle cx="40" cy="13" r="3" fill="#FFFFFF"/>
  <circle cx="50" cy="13" r="3" fill="#FFFFFF"/>
  <text x="140" y="17" font-family="system-ui, -apple-system, Segoe UI, sans-serif" font-size="10" font-weight="600" text-anchor="middle" fill="#FFFFFF">9:41</text>
  <circle cx="238" cy="13" r="4" fill="#999999"/>
  <circle cx="252" cy="13" r="4" fill="#FFCC00"/>
  <circle cx="266" cy="13" r="4" fill="#DD0000"/>

  <rect x="14" y="38" width="252" height="190" rx="12" fill="#000000" stroke="#555555" stroke-opacity="0.5"/>
  <text x="28" y="61" font-family="system-ui, -apple-system, Segoe UI, sans-serif" font-size="12.5" font-weight="600" fill="#E6F0FF">Amoled Black black white (dark)</text>
  <text x="28" y="77" font-family="system-ui, -apple-system, Segoe UI, sans-serif" font-size="9.5" fill="#FFFFFF">Secondary text</text>

  <rect x="26" y="87" width="228" height="50" rx="8" fill="#000000"/>
  <text x="38" y="105" font-family="system-ui, -apple-system, Segoe UI, sans-serif" font-size="10" font-weight="500" fill="#E6F0FF">Nested card</text>
  <text x="38" y="120" font-family="system-ui, -apple-system, Segoe UI, sans-serif" font-size="9" fill="#FFFFFF">Body text on an elevated surface</text>

  <rect x="26" y="145" width="228" height="22" rx="6" fill="#000000" stroke="#555555" stroke-opacity="0.4"/>
  <text x="38" y="160" font-family="system-ui, -apple-system, Segoe UI, sans-serif" font-size="9" fill="#FFFFFF">Search</text>

  <rect x="26" y="175" width="78" height="22" rx="11" fill="#FFFFFF"/>
  <text x="65" y="190" font-family="system-ui, -apple-system, Segoe UI, sans-serif" font-size="9.5" font-weight="600" text-anchor="middle" fill="#000000">Button</text>
  <rect x="112" y="175" width="70" height="22" rx="11" fill="#FFFFFF" fill-opacity="0.15"/>
  <text x="147" y="190" font-family="system-ui, -apple-system, Segoe UI, sans-serif" font-size="9.5" font-weight="500" text-anchor="middle" fill="#FFFFFF">Accent</text>
  <rect x="190" y="175" width="64" height="22" rx="11" fill="#000000"/>
  <text x="222" y="190" font-family="system-ui, -apple-system, Segoe UI, sans-serif" font-size="9.5" text-anchor="middle" fill="#E6F0FF">Chip</text>

  <circle cx="34" cy="212" r="7" fill="#FFFFFF"/>
  <circle cx="54" cy="212" r="7" fill="#999999"/>
  <circle cx="74" cy="212" r="7" fill="#DD0000"/>
  <circle cx="94" cy="212" r="7" fill="#FFCC00"/>
  <circle cx="114" cy="212" r="7" fill="#999999"/>
</g>
</svg>