<svg xmlns="http://www.w3.org/2000/svg" width="564" height="240" viewBox="0 0 564 240">
  <g transform="translate(0, 0)">
  <rect width="280" height="240" fill="#191724"/>

  <rect width="280" height="26" fill="#1f1d2e"/>
  <rect x="12" y="9" width="20" height="8" rx="4" fill="#c4a7e7"/>
  <circle cx="40" cy="13" r="3" fill="#e0def4"/>
  <circle cx="50" cy="13" r="3" fill="#e0def4"/>
  <text x="140" y="17" font-family="system-ui, -apple-system, Segoe UI, sans-serif" font-size="10" font-weight="600" text-anchor="middle" fill="#c4a7e7">9:41</text>
  <circle cx="238" cy="13" r="4" fill="#9ccfd8"/>
  <circle cx="252" cy="13" r="4" fill="#f6c177"/>
  <circle cx="266" cy="13" r="4" fill="#eb6f92"/>

  <rect x="14" y="38" width="252" height="190" rx="12" fill="#1f1d2e" stroke="#908caa" stroke-opacity="0.5"/>
  <text x="28" y="61" font-family="system-ui, -apple-system, Segoe UI, sans-serif" font-size="12.5" font-weight="600" fill="#e0def4">Rosé Pine Rosé Pine (dark)</text>
  <text x="28" y="77" font-family="system-ui, -apple-system, Segoe UI, sans-serif" font-size="9.5" fill="#e0def4">Secondary text</text>

  <rect x="26" y="87" width="228" height="50" rx="8" fill="#26233a"/>
  <text x="38" y="105" font-family="system-ui, -apple-system, Segoe UI, sans-serif" font-size="10" font-weight="500" fill="#e0def4">Nested card</text>
  <text x="38" y="120" font-family="system-ui, -apple-system, Segoe UI, sans-serif" font-size="9" fill="#e0def4">Body text on an elevated surface</text>

  <rect x="26" y="145" width="228" height="22" rx="6" fill="#1f1d2e" stroke="#908caa" stroke-opacity="0.4"/>
  <text x="38" y="160" font-family="system-ui, -apple-system, Segoe UI, sans-serif" font-size="9" fill="#e0def4">Search</text>

  <rect x="26" y="175" width="78" height="22" rx="11" fill="#c4a7e7"/>
  <text x="65" y="190" font-family="system-ui, -apple-system, Segoe UI, sans-serif" font-size="9.5" font-weight="600" text-anchor="middle" fill="#191724">Button</text>
  <rect x="112" y="175" width="70" height="22" rx="11" fill="#c4a7e7" fill-opacity="0.15"/>
  <text x="147" y="190" font-family="system-ui, -apple-system, Segoe UI, sans-serif" font-size="9.5" font-weight="500" text-anchor="middle" fill="#c4a7e7">Accent</text>
  <rect x="190" y="175" width="64" height="22" rx="11" fill="#524f67"/>
  <text x="222" y="190" font-family="system-ui, -apple-system, Segoe UI, sans-serif" font-size="9.5" text-anchor="middle" fill="#e0def4">Chip</text>

  <circle cx="34" cy="212" r="7" fill="#c4a7e7"/>
  <circle cx="54" cy="212" r="7" fill="#f6c177"/>
  <circle cx="74" cy="212" r="7" fill="#eb6f92"/>
  <circle cx="94" cy="212" r="7" fill="#f6c177"/>
  <circle cx="114" cy="212" r="7" fill="#9ccfd8"/>
</g>
  <rect x="280" y="0" width="4" height="240" fill="#888"/>
  <g transform="translate(284, 0)">
  <rect width="280" height="240" fill="#faf4ed"/>

  <rect width="280" height="26" fill="#fffaf3"/>
  <rect x="12" y="9" width="20" height="8" rx="4" fill="#907aa9"/>
  <circle cx="40" cy="13" r="3" fill="#575279"/>
  <circle cx="50" cy="13" r="3" fill="#575279"/>
  <text x="140" y="17" font-family="system-ui, -apple-system, Segoe UI, sans-serif" font-size="10" font-weight="600" text-anchor="middle" fill="#907aa9">9:41</text>
  <circle cx="238" cy="13" r="4" fill="#56949f"/>
  <circle cx="252" cy="13" r="4" fill="#ea9d34"/>
  <circle cx="266" cy="13" r="4" fill="#b4637a"/>

  <rect x="14" y="38" width="252" height="190" rx="12" fill="#fffaf3" stroke="#797593" stroke-opacity="0.5"/>
  <text x="28" y="61" font-family="system-ui, -apple-system, Segoe UI, sans-serif" font-size="12.5" font-weight="600" fill="#575279">Rosé Pine Rosé Pine (light)</text>
  <text x="28" y="77" font-family="system-ui, -apple-system, Segoe UI, sans-serif" font-size="9.5" fill="#575279">Secondary text</text>

  <rect x="26" y="87" width="228" height="50" rx="8" fill="#f2e9de"/>
  <text x="38" y="105" font-family="system-ui, -apple-system, Segoe UI, sans-serif" font-size="10" font-weight="500" fill="#575279">Nested card</text>
  <text x="38" y="120" font-family="system-ui, -apple-system, Segoe UI, sans-serif" font-size="9" fill="#575279">Body text on an elevated surface</text>

  <rect x="26" y="145" width="228" height="22" rx="6" fill="#fffaf3" stroke="#797593" stroke-opacity="0.4"/>
  <text x="38" y="160" font-family="system-ui, -apple-system, Segoe UI, sans-serif" font-size="9" fill="#575279">Search</text>

  <rect x="26" y="175" width="78" height="22" rx="11" fill="#907aa9"/>
  <text x="65" y="190" font-family="system-ui, -apple-system, Segoe UI, sans-serif" font-size="9.5" font-weight="600" text-anchor="middle" fill="#faf4ed">Button</text>
  <rect x="112" y="175" width="70" height="22" rx="11" fill="#907aa9" fill-opacity="0.15"/>
  <text x="147" y="190" font-family="system-ui, -apple-system, Segoe UI, sans-serif" font-size="9.5" font-weight="500" text-anchor="middle" fill="#907aa9">Accent</text>
  <rect x="190" y="175" width="64" height="22" rx="11" fill="#cecacd"/>
  <text x="222" y="190" font-family="system-ui, -apple-system, Segoe UI, sans-serif" font-size="9.5" text-anchor="middle" fill="#575279">Chip</text>

  <circle cx="34" cy="212" r="7" fill="#907aa9"/>
  <circle cx="54" cy="212" r="7" fill="#ea9d34"/>
  <circle cx="74" cy="212" r="7" fill="#b4637a"/>
  <circle cx="94" cy="212" r="7" fill="#ea9d34"/>
  <circle cx="114" cy="212" r="7" fill="#56949f"/>
</g>
</svg>