<svg xmlns="http://www.w3.org/2000/svg" width="564" height="240" viewBox="0 0 564 240">
  <g transform="translate(0, 0)">
  <rect width="280" height="240" fill="#272e33"/>

  <rect width="280" height="26" fill="#2e383c"/>
  <rect x="12" y="9" width="20" height="8" rx="4" fill="#a7c080"/>
  <circle cx="40" cy="13" r="3" fill="#d3c6aa"/>
  <circle cx="50" cy="13" r="3" fill="#d3c6aa"/>
  <text x="140" y="17" font-family="system-ui, -apple-system, Segoe UI, sans-serif" font-size="10" font-weight="600" text-anchor="middle" fill="#a7c080">9:41</text>
  <circle cx="238" cy="13" r="4" fill="#dabc7f"/>
  <circle cx="252" cy="13" r="4" fill="#e59875"/>
  <circle cx="266" cy="13" r="4" fill="#e57e80"/>

  <rect x="14" y="38" width="252" height="190" rx="12" fill="#2e383c" stroke="#9da9a0" stroke-opacity="0.5"/>
  <text x="28" y="61" font-family="system-ui, -apple-system, Segoe UI, sans-serif" font-size="12.5" font-weight="600" fill="#d3c6aa">Everforest Hard (dark)</text>
  <text x="28" y="77" font-family="system-ui, -apple-system, Segoe UI, sans-serif" font-size="9.5" fill="#d3c6aa">Secondary text</text>

  <rect x="26" y="87" width="228" height="50" rx="8" fill="#374145"/>
  <text x="38" y="105" font-family="system-ui, -apple-system, Segoe UI, sans-serif" font-size="10" font-weight="500" fill="#d3c6aa">Nested card</text>
  <text x="38" y="120" font-family="system-ui, -apple-system, Segoe UI, sans-serif" font-size="9" fill="#d3c6aa">Body text on an elevated surface</text>

  <rect x="26" y="145" width="228" height="22" rx="6" fill="#1e2326" stroke="#9da9a0" stroke-opacity="0.4"/>
  <text x="38" y="160" font-family="system-ui, -apple-system, Segoe UI, sans-serif" font-size="9" fill="#d3c6aa">Search</text>

  <rect x="26" y="175" width="78" height="22" rx="11" fill="#a7c080"/>
  <text x="65" y="190" font-family="system-ui, -apple-system, Segoe UI, sans-serif" font-size="9.5" font-weight="600" text-anchor="middle" fill="#1e2326">Button</text>
  <rect x="112" y="175" width="70" height="22" rx="11" fill="#a7c080" fill-opacity="0.15"/>
  <text x="147" y="190" font-family="system-ui, -apple-system, Segoe UI, sans-serif" font-size="9.5" font-weight="500" text-anchor="middle" fill="#a7c080">Accent</text>
  <rect x="190" y="175" width="64" height="22" rx="11" fill="#414b50"/>
  <text x="222" y="190" font-family="system-ui, -apple-system, Segoe UI, sans-serif" font-size="9.5" text-anchor="middle" fill="#d3c6aa">Chip</text>

  <circle cx="34" cy="212" r="7" fill="#a7c080"/>
  <circle cx="54" cy="212" r="7" fill="#7fbbb3"/>
  <circle cx="74" cy="212" r="7" fill="#e57e80"/>
  <circle cx="94" cy="212" r="7" fill="#e59875"/>
  <circle cx="114" cy="212" r="7" fill="#dabc7f"/>
</g>
  <rect x="280" y="0" width="4" height="240" fill="#888"/>
  <g transform="translate(284, 0)">
  <rect width="280" height="240" fill="#fffbef"/>

  <rect width="280" height="26" fill="#f2efdf"/>
  <rect x="12" y="9" width="20" height="8" rx="4" fill="#8ca101"/>
  <circle cx="40" cy="13" r="3" fill="#5c6a72"/>
  <circle cx="50" cy="13" r="3" fill="#5c6a72"/>
  <text x="140" y="17" font-family="system-ui, -apple-system, Segoe UI, sans-serif" font-size="10" font-weight="600" text-anchor="middle" fill="#8ca101">9:41</text>
  <circle cx="238" cy="13" r="4" fill="#dea000"/>
  <circle cx="252" cy="13" r="4" fill="#f47d26"/>
  <circle cx="266" cy="13" r="4" fill="#f75552"/>

  <rect x="14" y="38" width="252" height="190" rx="12" fill="#f2efdf" stroke="#829181" stroke-opacity="0.5"/>
  <text x="28" y="61" font-family="system-ui, -apple-system, Segoe UI, sans-serif" font-size="12.5" font-weight="600" fill="#5c6a72">Everforest Hard (light)</text>
  <text x="28" y="77" font-family="system-ui, -apple-system, Segoe UI, sans-serif" font-size="9.5" fill="#5c6a72">Secondary text</text>

  <rect x="26" y="87" width="228" height="50" rx="8" fill="#edeada"/>
  <text x="38" y="105" font-family="system-ui, -apple-system, Segoe UI, sans-serif" font-size="10" font-weight="500" fill="#5c6a72">Nested card</text>
  <text x="38" y="120" font-family="system-ui, -apple-system, Segoe UI, sans-serif" font-size="9" fill="#5c6a72">Body text on an elevated surface</text>

  <rect x="26" y="145" width="228" height="22" rx="6" fill="#f2efdf" stroke="#829181" stroke-opacity="0.4"/>
  <text x="38" y="160" font-family="system-ui, -apple-system, Segoe UI, sans-serif" font-size="9" fill="#5c6a72">Search</text>

  <rect x="26" y="175" width="78" height="22" rx="11" fill="#8ca101"/>
  <text x="65" y="190" font-family="system-ui, -apple-system, Segoe UI, sans-serif" font-size="9.5" font-weight="600" text-anchor="middle" fill="#f2efdf">Button</text>
  <rect x="112" y="175" width="70" height="22" rx="11" fill="#8ca101" fill-opacity="0.15"/>
  <text x="147" y="190" font-family="system-ui, -apple-system, Segoe UI, sans-serif" font-size="9.5" font-weight="500" text-anchor="middle" fill="#8ca101">Accent</text>
  <rect x="190" y="175" width="64" height="22" rx="11" fill="#e8e5d5"/>
  <text x="222" y="190" font-family="system-ui, -apple-system, Segoe UI, sans-serif" font-size="9.5" text-anchor="middle" fill="#5c6a72">Chip</text>

  <circle cx="34" cy="212" r="7" fill="#8ca101"/>
  <circle cx="54" cy="212" r="7" fill="#dea000"/>
  <circle cx="74" cy="212" r="7" fill="#f75552"/>
  <circle cx="94" cy="212" r="7" fill="#f47d26"/>
  <circle cx="114" cy="212" r="7" fill="#dea000"/>
</g>
</svg>