<svg xmlns="http://www.w3.org/2000/svg" width="280" height="240" viewBox="0 0 280 240">
  <g transform="translate(0, 0)">
  <rect width="280" height="240" fill="#1c1d1f"/>

  <rect width="280" height="26" fill="#2b2d30"/>
  <rect x="12" y="9" width="20" height="8" rx="4" fill="#ff6188"/>
  <circle cx="40" cy="13" r="3" fill="#8a898a"/>
  <circle cx="50" cy="13" r="3" fill="#8a898a"/>
  <text x="140" y="17" font-family="system-ui, -apple-system, Segoe UI, sans-serif" font-size="10" font-weight="600" text-anchor="middle" fill="#ff6188">9:41</text>
  <circle cx="238" cy="13" r="4" fill="#78dce8"/>
  <circle cx="252" cy="13" r="4" fill="#fc9867"/>
  <circle cx="266" cy="13" r="4" fill="#ff6188"/>

  <rect x="14" y="38" width="252" height="190" rx="12" fill="#2b2d30" stroke="#6e6d70" stroke-opacity="0.5"/>
  <text x="28" y="61" font-family="system-ui, -apple-system, Segoe UI, sans-serif" font-size="12.5" font-weight="600" fill="#c1c0c0">Monokai Pro Machine Pink</text>
  <text x="28" y="77" font-family="system-ui, -apple-system, Segoe UI, sans-serif" font-size="9.5" fill="#8a898a">Secondary text</text>

  <rect x="26" y="87" width="228" height="50" rx="8" fill="#3b3d40"/>
  <text x="38" y="105" font-family="system-ui, -apple-system, Segoe UI, sans-serif" font-size="10" font-weight="500" fill="#c1c0c0">Nested card</text>
  <text x="38" y="120" font-family="system-ui, -apple-system, Segoe UI, sans-serif" font-size="9" fill="#8a898a">Body text on an elevated surface</text>

  <rect x="26" y="145" width="228" height="22" rx="6" fill="#2b2d30" stroke="#6e6d70" stroke-opacity="0.4"/>
  <text x="38" y="160" font-family="system-ui, -apple-system, Segoe UI, sans-serif" font-size="9" fill="#8a898a">Search</text>

  <rect x="26" y="175" width="78" height="22" rx="11" fill="#ff6188"/>
  <text x="65" y="190" font-family="system-ui, -apple-system, Segoe UI, sans-serif" font-size="9.5" font-weight="600" text-anchor="middle" fill="#1c1d1f">Button</text>
  <rect x="112" y="175" width="70" height="22" rx="11" fill="#ff6188" fill-opacity="0.15"/>
  <text x="147" y="190" font-family="system-ui, -apple-system, Segoe UI, sans-serif" font-size="9.5" font-weight="500" text-anchor="middle" fill="#ff6188">Accent</text>
  <rect x="190" y="175" width="64" height="22" rx="11" fill="#555658"/>
  <text x="222" y="190" font-family="system-ui, -apple-system, Segoe UI, sans-serif" font-size="9.5" text-anchor="middle" fill="#c1c0c0">Chip</text>

  <circle cx="34" cy="212" r="7" fill="#ff6188"/>
  <circle cx="54" cy="212" r="7" fill="#fc9867"/>
  <circle cx="74" cy="212" r="7" fill="#ff6188"/>
  <circle cx="94" cy="212" r="7" fill="#fc9867"/>
  <circle cx="114" cy="212" r="7" fill="#78dce8"/>
</g>
</svg>