<svg xmlns="http://www.w3.org/2000/svg" width="280" height="240" viewBox="0 0 280 240">
  <g transform="translate(0, 0)">
  <rect width="280" height="240" fill="#242730"/>

  <rect width="280" height="26" fill="#282c35"/>
  <rect x="12" y="9" width="20" height="8" rx="4" fill="#4b8cd8"/>
  <circle cx="40" cy="13" r="3" fill="#b1b8c1"/>
  <circle cx="50" cy="13" r="3" fill="#b1b8c1"/>
  <text x="140" y="17" font-family="system-ui, -apple-system, Segoe UI, sans-serif" font-size="10" font-weight="600" text-anchor="middle" fill="#4b8cd8">9:41</text>
  <circle cx="238" cy="13" r="4" fill="#4b8cd8"/>
  <circle cx="252" cy="13" r="4" fill="#ba9443"/>
  <circle cx="266" cy="13" r="4" fill="#c24c39"/>

  <rect x="14" y="38" width="252" height="190" rx="12" fill="#282c35" stroke="#2b72c5" stroke-opacity="0.5"/>
  <text x="28" y="61" font-family="system-ui, -apple-system, Segoe UI, sans-serif" font-size="12.5" font-weight="600" fill="#d3dae3">Arc Darkest (light)</text>
  <text x="28" y="77" font-family="system-ui, -apple-system, Segoe UI, sans-serif" font-size="9.5" fill="#b1b8c1">Secondary text</text>

  <rect x="26" y="87" width="228" height="50" rx="8" fill="#3a3f4d"/>
  <text x="38" y="105" font-family="system-ui, -apple-system, Segoe UI, sans-serif" font-size="10" font-weight="500" fill="#d3dae3">Nested card</text>
  <text x="38" y="120" font-family="system-ui, -apple-system, Segoe UI, sans-serif" font-size="9" fill="#b1b8c1">Body text on an elevated surface</text>

  <rect x="26" y="145" width="228" height="22" rx="6" fill="#2b2f38" stroke="#2b72c5" stroke-opacity="0.4"/>
  <text x="38" y="160" font-family="system-ui, -apple-system, Segoe UI, sans-serif" font-size="9" fill="#b1b8c1">Search</text>

  <rect x="26" y="175" width="78" height="22" rx="11" fill="#4b8cd8"/>
  <text x="65" y="190" font-family="system-ui, -apple-system, Segoe UI, sans-serif" font-size="9.5" font-weight="600" text-anchor="middle" fill="#ffffff">Button</text>
  <rect x="112" y="175" width="70" height="22" rx="11" fill="#4b8cd8" fill-opacity="0.15"/>
  <text x="147" y="190" font-family="system-ui, -apple-system, Segoe UI, sans-serif" font-size="9.5" font-weight="500" text-anchor="middle" fill="#4b8cd8">Accent</text>
  <rect x="190" y="175" width="64" height="22" rx="11" fill="#454b5a"/>
  <text x="222" y="190" font-family="system-ui, -apple-system, Segoe UI, sans-serif" font-size="9.5" text-anchor="middle" fill="#d3dae3">Chip</text>

  <circle cx="34" cy="212" r="7" fill="#4b8cd8"/>
  <circle cx="54" cy="212" r="7" fill="#7a8fa8"/>
  <circle cx="74" cy="212" r="7" fill="#c24c39"/>
  <circle cx="94" cy="212" r="7" fill="#ba9443"/>
  <circle cx="114" cy="212" r="7" fill="#4b8cd8"/>
</g>
</svg>