<svg xmlns="http://www.w3.org/2000/svg" width="564" height="240" viewBox="0 0 564 240">
  <g transform="translate(0, 0)">
  <rect width="280" height="240" fill="#09070d"/>

  <rect width="280" height="26" fill="#09070d"/>
  <rect x="12" y="9" width="20" height="8" rx="4" fill="#ed92d8"/>
  <circle cx="40" cy="13" r="3" fill="#d9b8c4"/>
  <circle cx="50" cy="13" r="3" fill="#d9b8c4"/>
  <text x="140" y="17" font-family="system-ui, -apple-system, Segoe UI, sans-serif" font-size="10" font-weight="600" text-anchor="middle" fill="#ed92d8">9:41</text>
  <circle cx="238" cy="13" r="4" fill="#a2d2ff"/>
  <circle cx="252" cy="13" r="4" fill="#fab387"/>
  <circle cx="266" cy="13" r="4" fill="#f38ba8"/>

  <rect x="14" y="38" width="252" height="190" rx="12" fill="#09070d" stroke="#d9b8c4" stroke-opacity="0.5"/>
  <text x="28" y="61" font-family="system-ui, -apple-system, Segoe UI, sans-serif" font-size="12.5" font-weight="600" fill="#f0f0f0">Peace &amp; Quiet Pink (dark)</text>
  <text x="28" y="77" font-family="system-ui, -apple-system, Segoe UI, sans-serif" font-size="9.5" fill="#d9b8c4">Secondary text</text>

  <rect x="26" y="87" width="228" height="50" rx="8" fill="#221f26"/>
  <text x="38" y="105" font-family="system-ui, -apple-system, Segoe UI, sans-serif" font-size="10" font-weight="500" fill="#f0f0f0">Nested card</text>
  <text x="38" y="120" font-family="system-ui, -apple-system, Segoe UI, sans-serif" font-size="9" fill="#d9b8c4">Body text on an elevated surface</text>

  <rect x="26" y="145" width="228" height="22" rx="6" fill="#130f1a" stroke="#d9b8c4" stroke-opacity="0.4"/>
  <text x="38" y="160" font-family="system-ui, -apple-system, Segoe UI, sans-serif" font-size="9" fill="#d9b8c4">Search</text>

  <rect x="26" y="175" width="78" height="22" rx="11" fill="#ed92d8"/>
  <text x="65" y="190" font-family="system-ui, -apple-system, Segoe UI, sans-serif" font-size="9.5" font-weight="600" text-anchor="middle" fill="#1e1e00">Button</text>
  <rect x="112" y="175" width="70" height="22" rx="11" fill="#ed92d8" fill-opacity="0.15"/>
  <text x="147" y="190" font-family="system-ui, -apple-system, Segoe UI, sans-serif" font-size="9.5" font-weight="500" text-anchor="middle" fill="#ed92d8">Accent</text>
  <rect x="190" y="175" width="64" height="22" rx="11" fill="#17141a"/>
  <text x="222" y="190" font-family="system-ui, -apple-system, Segoe UI, sans-serif" font-size="9.5" text-anchor="middle" fill="#f0f0f0">Chip</text>

  <circle cx="34" cy="212" r="7" fill="#ed92d8"/>
  <circle cx="54" cy="212" r="7" fill="#a2d2ff"/>
  <circle cx="74" cy="212" r="7" fill="#f38ba8"/>
  <circle cx="94" cy="212" r="7" fill="#fab387"/>
  <circle cx="114" cy="212" r="7" fill="#a2d2ff"/>
</g>
  <rect x="280" y="0" width="4" height="240" fill="#888"/>
  <g transform="translate(284, 0)">
  <rect width="280" height="240" fill="#f5f0fa"/>

  <rect width="280" height="26" fill="#f5f0fa"/>
  <rect x="12" y="9" width="20" height="8" rx="4" fill="#b83a99"/>
  <circle cx="40" cy="13" r="3" fill="#401830"/>
  <circle cx="50" cy="13" r="3" fill="#401830"/>
  <text x="140" y="17" font-family="system-ui, -apple-system, Segoe UI, sans-serif" font-size="10" font-weight="600" text-anchor="middle" fill="#b83a99">9:41</text>
  <circle cx="238" cy="13" r="4" fill="#3a547d"/>
  <circle cx="252" cy="13" r="4" fill="#b05520"/>
  <circle cx="266" cy="13" r="4" fill="#b0324e"/>

  <rect x="14" y="38" width="252" height="190" rx="12" fill="#f5f0fa" stroke="#c47ab0" stroke-opacity="0.5"/>
  <text x="28" y="61" font-family="system-ui, -apple-system, Segoe UI, sans-serif" font-size="12.5" font-weight="600" fill="#1e1824">Peace &amp; Quiet Pink (light)</text>
  <text x="28" y="77" font-family="system-ui, -apple-system, Segoe UI, sans-serif" font-size="9.5" fill="#401830">Secondary text</text>

  <rect x="26" y="87" width="228" height="50" rx="8" fill="#e8e0f2"/>
  <text x="38" y="105" font-family="system-ui, -apple-system, Segoe UI, sans-serif" font-size="10" font-weight="500" fill="#1e1824">Nested card</text>
  <text x="38" y="120" font-family="system-ui, -apple-system, Segoe UI, sans-serif" font-size="9" fill="#401830">Body text on an elevated surface</text>

  <rect x="26" y="145" width="228" height="22" rx="6" fill="#ede8f5" stroke="#c47ab0" stroke-opacity="0.4"/>
  <text x="38" y="160" font-family="system-ui, -apple-system, Segoe UI, sans-serif" font-size="9" fill="#401830">Search</text>

  <rect x="26" y="175" width="78" height="22" rx="11" fill="#b83a99"/>
  <text x="65" y="190" font-family="system-ui, -apple-system, Segoe UI, sans-serif" font-size="9.5" font-weight="600" text-anchor="middle" fill="#ffffff">Button</text>
  <rect x="112" y="175" width="70" height="22" rx="11" fill="#b83a99" fill-opacity="0.15"/>
  <text x="147" y="190" font-family="system-ui, -apple-system, Segoe UI, sans-serif" font-size="9.5" font-weight="500" text-anchor="middle" fill="#b83a99">Accent</text>
  <rect x="190" y="175" width="64" height="22" rx="11" fill="#ede8f5"/>
  <text x="222" y="190" font-family="system-ui, -apple-system, Segoe UI, sans-serif" font-size="9.5" text-anchor="middle" fill="#1e1824">Chip</text>

  <circle cx="34" cy="212" r="7" fill="#b83a99"/>
  <circle cx="54" cy="212" r="7" fill="#3a547d"/>
  <circle cx="74" cy="212" r="7" fill="#b0324e"/>
  <circle cx="94" cy="212" r="7" fill="#b05520"/>
  <circle cx="114" cy="212" r="7" fill="#3a547d"/>
</g>
</svg>